<?xml version="1.0" ?>
<!-- Uploaded to: SVG Repo, www.svgrepo.com, Generator: SVG Repo Mixer Tools -->
<svg width="800px" height="800px" viewBox="0 0 512 512" xmlns="http://www.w3.org/2000/svg">
<defs>
<style>.e{fill:#f4f4f4;}.f{fill:#ededed;}.g{fill:#f2c34e;}.h{fill:#fcd17a;}.i{fill:#65b3a4;}.j{fill:#8c8c8c;}.k{fill:#cecece;}.l{fill:#e2ac40;}.m{fill:#dfdfdf;}.n{fill:#41a08e;}.o{fill:#365650;}.p{fill:#9b9b9b;}.q{fill:#75bbad;}</style>
</defs>
<g id="a"/>
<g id="b"/>
<g id="c">
<g>
<path class="m" d="M224,183.9999v4.66894c0,65.77962,37.16482,125.91357,95.9999,155.33111l.0001,.00005,.0001-.00005c58.83508-29.41754,95.9999-89.55148,95.9999-155.33111v-4.66894c0-53.01928-42.98062-95.9999-95.9999-95.9999h-.00019c-53.01928,0-95.9999,42.98062-95.9999,95.9999Z"/>
<path class="q" d="M280,151.9999v9.88164c0,72.75095,39.94479,139.6272,103.9999,174.11841l.0001,.00006,.0001-.00006c64.05511-34.49121,103.9999-101.36746,103.9999-174.11841v-9.88164c0-57.43756-46.56234-103.9999-103.9999-103.9999h-.00021c-57.43756,0-103.9999,46.56234-103.9999,103.9999Z"/>
<path class="e" d="M383.97461,103.94922c-39.77844,0-72.02527,32.24707-72.02527,72.02539s32.24683,72.02539,72.02527,72.02539,72.02539-32.24683,72.02539-72.02539-32.24683-72.02539-72.02539-72.02539Zm-54.01892,72.02539c0-26.76611,19.46729-48.98584,45.0155-53.27197l.00024,44.2688-37.12671,37.12646c-5.00488-8.19189-7.88904-17.8208-7.88904-28.12329Zm20.58875,42.43481l24.427-24.42847,.00549,35.2666c-9.12244-1.5293-17.46973-5.34521-24.4325-10.83813Zm42.43359,10.8374l-.00024-35.26587,24.42749,24.42822c-6.96143,5.49194-15.30688,9.30737-24.42725,10.83765Zm37.12671-25.14917l-37.12695-37.12622-.00928-44.27051c25.55298,4.28247,45.02515,26.50415,45.02515,53.27368,0,10.30249-2.88403,19.93115-7.88892,28.12305Z"/>
<path class="m" d="M88,159.9999v4.66894c0,65.77962,37.16482,125.91357,95.9999,155.33111l.0001,.00005,.0001-.00005c58.83508-29.41754,95.9999-89.55148,95.9999-155.33111v-4.66894c0-53.01928-42.98062-95.9999-95.9999-95.9999h-.00019c-53.01928,0-95.9999,42.98062-95.9999,95.9999Z"/>
<path class="g" d="M152,127.9999v.00022c0,70.14407,34.41352,135.82463,92.08543,175.75134l11.91457,8.24855,11.91457-8.24855c57.67191-39.92671,92.08543-105.60727,92.08543-175.75134v-.00022c0-57.43756-46.56234-103.9999-103.9999-103.9999h-.00021c-57.43756,0-103.9999,46.56234-103.9999,103.9999Z"/>
<path class="l" d="M256,92.26123c-35.34619,0-64,28.65381-64,64s28.65381,64,64,64,64-28.65381,64-64-28.65381-64-64-64Zm-48,64c0-23.78394,17.2981-43.52759,39.99976-47.33643l.00024,39.33643-32.98999,32.9895c-4.44727-7.27905-7.01001-15.83496-7.01001-24.9895Zm18.29468,37.70654l21.70532-21.70654,.00488,31.33716c-8.10596-1.35913-15.52319-4.74976-21.71021-9.63062Zm37.70544,9.62988l-.00012-31.33643,21.70557,21.7063c-6.18579,4.87988-13.60132,8.27026-21.70544,9.63013Zm32.98999-22.34692l-32.99011-32.9895-.0083-39.33789c22.70581,3.80542,40.0083,23.55103,40.0083,47.33789,0,9.1543-2.56274,17.71045-7.00989,24.9895Z"/>
<path class="m" d="M387.32812,388.35645l1.7793-12.35645h-8.08203l-1.60205,11.12891c-4.98047,29.88184-3.78027,59.93555,3.56787,89.32617l5.12842,20.51465,7.76074-1.93945-5.12842-20.51465c-7.07959-28.32031-8.23633-57.27832-3.42383-86.15918Z"/>
<path class="g" d="M384,336l-6.11147,6.11147c-10.96327,10.96327-14.79146,27.17973-9.88853,41.8885v.00002h32.00001v-.00002c4.90293-14.70877,1.07474-30.92523-9.88853-41.8885l-6.11147-6.11147Z"/>
<path class="m" d="M267.75928,361.36719l3.40625-9.36719h-8.51221l-2.39844,6.5957c-15.79736,42.125-16.66211,88.83105-2.43506,131.51367l2.38525,7.15527,7.58984-2.5293-2.38525-7.15527c-13.6499-40.9502-12.82031-85.75977,2.34961-126.21289Z"/>
<path class="k" d="M322.89795,384h-8.08142l2.06824,14.47754c4.59375,32.15625,1.59229,65.44141-8.67969,96.25781l7.58984,2.5293c10.6626-31.98828,13.77783-66.53906,9.00977-99.91797l-1.90674-13.34668Z"/>
<path class="m" d="M320,344l-.00002,.00002c-10.24462,10.24462-15.99998,24.1393-15.99998,38.62738v9.37261h32v-9.37261c0-14.48808-5.75537-28.38276-15.99998-38.62738l-.00002-.00002Z"/>
<path class="k" d="M184.53906,384.01465l5.33655-24.01465h-8.19543l-4.95068,22.27832c-8.40967,37.84277-7.22559,77.54688,3.42432,114.82031l7.69238-2.19727c-10.28516-35.99707-11.42871-74.34082-3.30713-110.88672Z"/>
<path class="m" d="M184,320l-.00002,.00002c-10.24462,10.24462-15.99998,24.1393-15.99998,38.62738v9.37261h32v-9.37261c0-14.48808-5.75537-28.38276-15.99998-38.62738l-.00002-.00002Z"/>
<path class="m" d="M123.88037,496.96973l-7.76074-1.93945,7.42236-29.68848c10.64697-42.5918,8.12744-86.83203-7.28711-127.9375l-2.39648-6.77637,7.54297-2.66602,2.37012,6.70508c15.96045,42.56055,18.57422,88.44238,7.53125,132.61426l-7.42236,29.68848Z"/>
<path class="n" d="M120,288l-.00002,.00002c-10.24462,10.24462-15.99998,24.1393-15.99998,38.62738v9.37261h32v-9.37261c0-14.48808-5.75537-28.38276-15.99998-38.62738l-.00002-.00002Z"/>
<path class="g" d="M256,312l-.00002,.00002c-14.39257,9.59504-21.1995,27.2019-17.00419,43.98314l1.00421,4.01684h32l1.00421-4.01684c4.19531-16.78124-2.61162-34.3881-17.00419-43.98314l-.00002-.00002Z"/>
<path class="q" d="M384,336l-6.11147,6.11147c-10.96327,10.96327-14.79146,27.17973-9.88853,41.8885v.00002h32.00001v-.00002c4.90293-14.70877,1.07474-30.92523-9.88853-41.8885l-6.11147-6.11147Z"/>
<path class="h" d="M76.89111,297.01855c-4.38086-2.94727-8.67627-6.125-12.76709-9.44531l5.04199-6.21094c3.90576,3.16992,8.00732,6.2041,12.19092,9.01953l-4.46582,6.63672Z"/>
<path class="h" d="M55.85059,280.4248c-14.4375-13.27246-26.51025-28.75-35.88232-46.00098l7.0293-3.81836c8.95068,16.47461,20.47998,31.25488,34.26709,43.93066l-5.41406,5.88867Z"/>
<path class="h" d="M467.27246,55.65234c-12.9668-11.2793-28.67334-19.05469-45.4209-22.48535l1.60547-7.83789c18.09521,3.70801,35.06152,12.10645,49.06543,24.28809l-5.25,6.03516Z"/>
<path class="h" d="M484.05566,74.43262c-2.54492-3.69141-5.37012-7.25098-8.39795-10.5791l5.91797-5.38281c3.26807,3.5918,6.31836,7.43457,9.06689,11.4209l-6.58691,4.54102Z"/>
<path class="n" d="M24,127.9999v4.66894c0,65.77962,37.16482,125.91357,95.9999,155.33111l.0001,.00005,.0001-.00005c58.83508-29.41754,95.9999-89.55148,95.9999-155.33111v-4.66894c0-53.01928-42.98062-95.9999-95.9999-95.9999h-.00019c-53.01928,0-95.9999,42.98062-95.9999,95.9999Z"/>
<path class="m" d="M120.05274,118.14286c5.1592,0,10.00986-2.18878,13.3838-6.01272,11.0275-12.49828,35.40854-40.13013,35.40854-40.13013l3.59231,8.18249c1.18343,2.6956,2.12834,5.40206,2.84871,8.10319l-30.36838,34.82453c-4.67459,5.36052-12.83307,5.85518-18.12107,1.09871l-6.74392-6.06606Z"/>
<path class="i" d="M87.06592,156.90723l-4.42615-2.9353c2.47864-21.4397-4.37329-43.51294-19.9762-60.01099l-5.8125,5.49609c9.47351,10.01758,15.32593,22.33813,17.41504,35.21582l-.99707,.94238c-6.60254,6.24414-14.229,11.12305-22.65723,14.49609l-.12305,.04883,2.95117,7.43555,.13379-.05273c7.87256-3.15112,15.09863-7.49219,21.55981-12.90527,.08252,7.40405-1.07092,14.84155-3.47827,22l-4.90234,.2334c-10.0166,.47754-19.05273,5.91016-24.17188,14.53223l6.87891,4.08398c3.74316-6.30469,10.3501-10.27637,17.67383-10.62598l1.15332-.05493c-1.0625,2.16138-2.23608,4.2876-3.5498,6.35962l-16.07959,25.35938,6.75586,4.2832,16.08008-25.35938c.53296-.84058,1.04321-1.69019,1.53931-2.54492,2.58398,6.16064,3.62329,12.90332,2.97729,19.55762l7.96289,.77344c.80029-8.24805-.54102-16.61523-3.87793-24.19922l-2.44702-5.56177c1.44873-3.56714,2.61719-7.20923,3.48962-10.89868l1.50623,.99854c7.51611,4.98535,11.91797,13.34473,11.77539,22.3623l7.99902,.12695c.18604-11.75684-5.55322-22.65625-15.35254-29.15625Z"/>
<polygon class="j" points="84.35701 104.57811 71.6947 123.57129 90.4964 115.51355 84.35701 104.57811"/>
<path class="f" d="M136.36792,161.57129l-.15503-.73608c37.42651,.82593,66.13684-38.21802,49.89026-75.22412l-3.59241-8.18262s-24.38098,27.63208-35.40845,40.13013c-3.37402,3.82397-8.22461,6.0127-13.38379,6.0127h-.2572c-7.66223,0-14.14343-5.66699-15.16565-13.26074l-.04187-.31055c1.17249-2.46802,1.82849-5.22876,1.82849-8.14282,0-10.79102-8.99585-19.48096-19.89746-18.97925-9.65247,.44385-17.52148,8.22021-18.0708,17.86719-.45837,8.04736,4.09424,15.08594,10.82532,18.28369-7.86975,13.65186-4.9032,30.97241,7.06091,41.22754l17.36768,14.88647,1.64233,9.85327c2.4624,14.77539,9.48022,28.41211,20.07202,39.00391,16.93286-3.38672,31.00977-15.09619,37.4231-31.12915l.5769-1.44238-10.55225-1.62329c-14.9126-2.29443-26.88892-13.50488-30.16211-28.23389Z"/>
<rect class="p" height="8" width="7.82031" x="92.93945" y="95.14258"/>
<path class="o" d="M384,44c-16.72375,0-33.31274,3.90771-48.18213,11.32202-19.76672-21.68945-48.22974-35.32202-79.81787-35.32202-27.83496,0-54.02075,10.44482-74.14465,29.47974-17.03125-13.44531-38.52222-21.47974-61.85535-21.47974-55.14014,0-100,44.85938-100,100v4.66895c0,33.01855,9.17529,65.31641,26.53418,93.4043,16.43652,26.59448,39.53882,48.3042,67.01709,63.07324-8.76953,10.50928-13.55127,23.62549-13.55127,37.48047v9.37305c0,2.20898,1.79102,4,4,4h13.20068c14.56055,40.36914,16.76465,83.64453,6.34131,125.3418l-7.42236,29.68848,7.76074,1.93945,7.42236-29.68848c10.578-42.31201,8.61621-86.19092-5.61816-127.28125h10.31543c2.20898,0,4-1.79102,4-4v-9.37305c0-13.85498-4.78174-26.97119-13.55127-37.48047,1.85327-.99609,3.68726-2.02246,5.49976-3.08105,13.22852,14.14551,28.53687,25.92188,45.59912,35.08496-8.76733,10.50879-13.54761,23.62354-13.54761,37.47656v9.37305c0,2.20898,1.79102,4,4,4h11.01343l-2.28394,10.27832c-8.40967,37.84277-7.22559,77.54688,3.42432,114.82031l7.69238-2.19727c-10.28516-35.99707-11.42871-74.34082-3.30713-110.8877l2.66968-12.01367h12.79126c2.20898,0,4-1.79102,4-4v-9.37305c0-13.85742-4.78345-26.97559-13.55615-37.48633,13.07959-7.0293,25.18701-15.65039,36.10522-25.68848,4.89429,4.05859,9.97559,7.92969,15.25952,11.58789l7.40637,5.12793c-12.59473,10.97119-18.22375,28.29102-14.09973,44.78613l1.00439,4.0166c.44531,1.78027,2.04492,3.0293,3.88037,3.0293h18.32959c-13.9082,40.69092-14.13147,85.24316-.50977,126.10938l2.38525,7.15527,7.58984-2.5293-2.38525-7.15527c-13.35864-40.07617-12.84009-83.84668,1.39404-123.58008h5.19629c1.83545,0,3.43506-1.24902,3.88037-3.0293l1.00439-4.01758c4.12402-16.49414-1.505-33.81396-14.09973-44.78516l4.32971-2.99805c13.4126,14.54346,29.00024,26.61963,46.43274,35.98047-8.76721,10.50879-13.54749,23.62354-13.54749,37.47656v9.37305c0,2.20898,1.79102,4,4,4h12.53076l.354,2.47754c4.59375,32.15625,1.59229,65.44141-8.67969,96.25781l7.58984,2.5293c10.6626-31.98828,13.77783-66.53906,9.00977-99.91797l-.19238-1.34668h11.3877c2.20898,0,4-1.79102,4-4v-9.37305c0-13.85303-4.78015-26.96777-13.54736-37.47656,11.09937-5.96533,21.52466-13.10547,31.10327-21.26758,6.35437,4.71729,12.98706,9.07324,19.87952,13.0249l-2.37537,2.37549c-12.11182,12.1123-16.27148,29.73145-10.85498,45.98145,.54443,1.63379,2.07324,2.73535,3.79492,2.73535h11.28955c-4.81323,29.59473-3.5752,59.3501,3.70166,88.45508l5.12842,20.51465,7.76074-1.93945-5.12842-20.51465c-7.07959-28.32031-8.23633-57.27832-3.43701-86.07227l.07385-.44336h12.61121c1.72168,0,3.25049-1.10156,3.79492-2.73535,5.4165-16.25,1.25684-33.86914-10.85498-45.98145l-2.36768-2.36768c62.69922-35.91895,101.42773-102.48999,101.42773-175.03369v-9.88184c0-59.55176-48.44873-108-108-108ZM53.33936,221.86719c-16.57715-26.82227-25.33936-57.66699-25.33936-89.19824v-4.66895c0-50.72852,41.271-92,92-92s92,41.27148,92,92v4.66895c0,31.53125-8.76221,62.37598-25.33936,89.19824-16.2251,26.25293-39.24658,47.5332-66.66064,61.64746-27.41406-14.11426-50.43555-35.39453-66.66064-61.64746ZM244,113.91992v32.68359l-28.00439,28.00488c-.23828-.51831-.44531-1.04834-.6626-1.57446,3.07178-13.1687,4.66699-26.70215,4.66699-40.36499v-1.6936c5.82983-8.28052,14.35693-14.31616,24-17.05542Zm-31.66064,70.28271c.60779,.5498,1.36499,.92139,2.19727,1.02002,.1582,.01953,.31592,.02832,.47363,.02832,1.0542,0,2.07324-.41699,2.82812-1.17188l32.99023-32.99023c.75-.75,1.17139-1.76758,1.17139-2.82812v-39.33594c0-1.17676-.51807-2.29297-1.41602-3.05371-.89795-.75879-2.08594-1.08105-3.24561-.8916-10.49927,1.76196-20.18933,6.77441-27.7356,14.15918-.28467-3.22656-.72168-6.41016-1.30676-9.54248,10.64929-8.61133,23.94629-13.33545,37.70398-13.33545,33.08398,0,60,26.91602,60,60s-26.91602,60-60,60c-18.43652,0-35.37573-8.19482-46.83313-22.52856,1.15173-3.14575,2.20117-6.32568,3.17249-9.52954Zm-80.33936,147.79736h-24v-5.37305c0-12.12305,4.2334-23.59668,12-32.73242,7.7666,9.13574,12,20.60938,12,32.73242v5.37305Zm64,32h-24v-5.37305c0-12.12305,4.2334-23.59668,12-32.73242,7.7666,9.13574,12,20.60938,12,32.73242v5.37305Zm-12-48.48535c-16.88867-8.69043-32.02832-20.02393-45.09583-33.73486,16.06409-10.40039,30.31921-23.32324,42.25256-38.27393,10.91895,17.47656,24.0813,33.09082,39.29688,46.69189-10.98828,9.99072-23.21582,18.50244-36.45361,25.31689Zm2.36816-78.83936c2.48425-3.44116,4.85547-6.97412,7.09766-10.60205,4.7478-7.68213,8.86011-15.68823,12.36328-23.92896,12.80396,13.95239,31.09399,22.11646,50.1709,22.11646,37.49512,0,68-30.50488,68-68s-30.50488-68-68-68c-14.30713,0-28.17749,4.50659-39.69263,12.79028-5.04272-17.9978-15.00757-33.9563-28.34326-46.33325,18.55029-17.25757,42.54639-26.71777,68.03589-26.71777,55.14014,0,100,44.85938,100,100,0,68.81934-33.78027,133.29102-90.3623,172.46191l-9.6377,6.67285-9.6377-6.67285c-24.45728-16.93066-44.62036-38.38965-59.99414-63.78662Zm167.39404-42.73682l24.08838-24.08789c.75-.75,1.17139-1.76758,1.17139-2.82812v-44.26953c0-1.17676-.51807-2.29395-1.4165-3.05371-.89795-.75977-2.0835-1.08594-3.24609-.89062-3.60754,.60547-7.13721,1.5542-10.55225,2.82397-.2019-3.45483-.56165-6.86816-1.08228-10.22925,6.84692-2.25732,13.99634-3.40332,21.30054-3.40332,37.50928,0,68.02539,30.51562,68.02539,68.02539s-30.51611,68.02539-68.02539,68.02539c-16.31506,0-31.90015-5.78369-44.22046-16.33887,5.57861-10.8291,10.25391-22.12378,13.95728-33.77344Zm10.20422-63.74731c2.28772-1.00269,4.64514-1.83179,7.05554-2.47925v37.65332l-12.93213,12.93213c3.70825-15.61182,5.71191-31.73267,5.87659-48.1062Zm-94.84241,224.82153l-.24707,.9873h-25.75391l-.24707-.98633c-3.55273-14.21191,1.69873-29.17383,13.12402-38.08398,11.42529,8.91016,16.67676,23.87207,13.12402,38.08301Zm62.87598,32.9873h-24v-5.37305c0-12.12305,4.2334-23.59668,12-32.73242,7.7666,9.13574,12,20.60938,12,32.73242v5.37305Zm-12-48.48535c-17.41394-8.96094-32.95801-20.71777-46.28735-34.99316,13.05188-9.42432,24.8916-20.15625,35.3728-31.96582,11.5293,17.56738,25.73511,33.19287,42.01306,46.33008-9.56482,7.9873-19.99658,14.91357-31.09851,20.62891Zm77.00391,40.48535h-26.00781c-3.15869-12.56738,.44189-25.78027,9.72119-35.06055l3.28271-3.28223,3.28271,3.28223c9.2793,9.28027,12.87988,22.49316,9.72119,35.06055Zm86.99609-218.11816c0,70.66504-38.25684,135.43262-100,169.56152-28.2063-15.59863-52.1377-38.0918-69.4906-65.24365,8.05945-9.81592,15.23474-20.28931,21.43982-31.30249,13.552,11.08569,30.42798,17.15356,48.07617,17.15356,41.92041,0,76.02539-34.10449,76.02539-76.02539s-34.10498-76.02539-76.02539-76.02539c-7.8147,0-15.46997,1.18921-22.82837,3.50635-3.60681-15.49561-10.55981-29.71948-20.05127-41.86987,13.30847-6.30981,28.02039-9.63647,42.85425-9.63647,55.14014,0,100,44.85938,100,100v9.88184Z"/>
<path class="o" d="M390.19971,169.85059l37.12695,37.12598c.75488,.75488,1.77393,1.17188,2.82861,1.17188,.15674,0,.31494-.00879,.47314-.02832,1.21729-.14453,2.30127-.83984,2.94043-1.88672,5.54492-9.07617,8.47559-19.52148,8.47559-30.20801,0-28.45801-20.34033-52.52246-48.36426-57.21875-1.1626-.19238-2.34766,.13184-3.24561,.89258-.89795,.75977-1.41602,1.87695-1.41553,3.05371l.00928,44.27051c0,1.06055,.42188,2.07715,1.17139,2.82715Zm43.84473,6.1748c0,7.48145-1.66504,14.82422-4.84814,21.50684l-32.16846-32.16699-.00781-37.66016c21.71631,5.77637,37.02441,25.39355,37.02441,48.32031Z"/>
<path class="o" d="M348.11768,221.60059c7.62549,6.01562,16.70215,10.04199,26.24854,11.64355,.22021,.03613,.44141,.05469,.66162,.05469,.93896,0,1.85645-.33105,2.58398-.94629,.89844-.76074,1.41602-1.87793,1.41602-3.05469l-.00586-35.26758c-.00049-1.61719-.9751-3.07617-2.46973-3.69434-1.49365-.61914-3.21533-.27734-4.35889,.86719l-24.42676,24.42871c-.80762,.80762-1.23145,1.92285-1.16455,3.0625,.06738,1.14062,.61865,2.19824,1.51562,2.90625Zm22.90576-17.91309l.00342,20.64941c-5.05078-1.35938-9.87939-3.5166-14.2749-6.37695l14.27148-14.27246Z"/>
<path class="o" d="M395.85693,191.20312c-1.14453-1.14355-2.86279-1.48535-4.35938-.86719-1.49463,.61914-2.46924,2.07715-2.46924,3.69531l.00049,35.2666c0,1.17676,.51807,2.29395,1.41602,3.05371,.72754,.61523,1.64502,.94629,2.58398,.94629,.22021,0,.44141-.01855,.66211-.05469,9.54395-1.60156,18.61865-5.62793,26.24268-11.64258,.89697-.70801,1.44873-1.76562,1.51562-2.90625,.06689-1.13965-.35693-2.25488-1.16455-3.0625l-24.42773-24.42871Zm1.17188,33.13281l-.00049-20.64746,14.271,14.27148c-4.39502,2.86035-9.22119,5.0166-14.27051,6.37598Z"/>
<path class="o" d="M139.08203,228c.26074,0,.52344-.02539,.78467-.07812,18.32666-3.66504,33.41211-16.21289,40.35303-33.56543l.57666-1.44238c.45264-1.13281,.36377-2.41016-.24072-3.46875-.60498-1.05957-1.65967-1.78418-2.86523-1.96973l-10.55225-1.62402c-12.00586-1.84668-21.72803-9.98145-25.72217-21.17969,15.4458-1.14746,29.99463-8.56836,40.21289-21.05762,13.98047-17.08691,17.02246-39.37207,8.13672-59.61133l-3.59229-8.18262c-.54883-1.25-1.69727-2.13379-3.04639-2.34375-1.34912-.21191-2.7124,.28125-3.61572,1.30566l-3.39014,3.84229-.021-.05029-3.59229-8.18262c-.54883-1.25-1.69727-2.13379-3.04639-2.34375s-2.7124,.28223-3.61572,1.30566l-35.40869,40.12988c-1.82861,2.07275-4.23779,3.50928-6.88281,4.19482-.53271-.96924-.93652-2.02124-1.16602-3.14209,1.12451-2.75195,1.69385-5.66504,1.69385-8.67871,0-6.34473-2.52734-12.25293-7.11719-16.63574-4.58643-4.38086-10.60596-6.61816-16.96387-6.33984-11.6084,.53516-21.21973,10.03809-21.88086,21.63574-.10962,1.9248,.02466,3.81787,.37097,5.64893l-3.50525,5.25757c-3.19116-6.25952-7.29932-12.1521-12.32227-17.46313l-5.8125,5.49609c5.58301,5.90356,9.89941,12.61084,12.94189,19.75635l-1.42627,2.13916c-.98193,1.47266-.87891,3.41602,.25293,4.77637,.77783,.93555,1.91357,1.44238,3.07666,1.44238,.32764,0,.65552-.05542,.98022-.13794,.66479,2.3855,1.19409,4.802,1.5896,7.2395l-.99707,.94238c-6.60254,6.24414-14.229,11.12305-22.65723,14.49609l-.12305,.04883,2.95117,7.43555,.13379-.05273c7.87256-3.15112,15.09863-7.49219,21.55981-12.90527,.08252,7.40405-1.07092,14.84155-3.47827,22l-4.90234,.2334c-10.0166,.47754-19.05273,5.91016-24.17188,14.53223l6.87891,4.08398c3.74316-6.30469,10.3501-10.27637,17.67383-10.62598l1.15332-.05493c-1.0625,2.16138-2.23608,4.2876-3.5498,6.35962l-16.07959,25.35938,6.75586,4.2832,16.08008-25.35938c.53296-.84058,1.04321-1.69019,1.53931-2.54492,2.58398,6.16064,3.62329,12.90332,2.97729,19.55762l7.96289,.77344c.80029-8.24805-.54102-16.61523-3.87793-24.19922l-2.44702-5.56177c1.44873-3.56714,2.61719-7.20923,3.48962-10.89868l1.50623,.99854c7.51611,4.98535,11.91797,13.34473,11.77539,22.3623l7.99902,.12695c.18604-11.75684-5.55322-22.65625-15.35254-29.15625l-4.42615-2.9353c1.151-9.9563,.28381-20.04541-2.53381-29.65332l7.31836-3.13647c-6.09839,14.53662-2.25586,31.62939,9.97266,42.11084l16.26465,13.94043,1.40283,8.41992c2.61475,15.68945,9.94189,29.92773,21.18896,41.1748,.75781,.75781,1.77832,1.17188,2.82861,1.17188Zm-2.646-113.22363l31.26465-35.43359,1.07422,2.44727c.51526,1.17383,.98401,2.36426,1.40991,3.56201l-26.08228,29.56006c-2.61182,2.96094-6.39697,4.65918-10.38428,4.65918h-.25684c-.87646,0-1.72986-.11157-2.55457-.30469,2.05847-1.1731,3.9325-2.68042,5.52917-4.49023Zm-15.12207,59.70898c-.15479-.92676-.62988-1.76855-1.34277-2.37988l-17.36816-14.88672c-10.49463-8.99512-13.10156-24.2168-6.19824-36.19238,.55762-.96777,.68555-2.12305,.35352-3.18848-.33252-1.06543-1.09473-1.94336-2.10254-2.42285-5.54248-2.63281-8.89795-8.30176-8.54834-14.44238,.43066-7.55762,6.69531-13.75098,14.26172-14.09863,.23975-.01172,.479-.0166,.71729-.0166,3.88232,0,7.53516,1.45898,10.35352,4.14941,2.99316,2.85938,4.64209,6.71289,4.64209,10.85059,0,2.25098-.48486,4.41309-1.44092,6.42578-.33203,.69922-.45459,1.47949-.35205,2.24707l.04199,.31445c.59546,4.4209,2.69507,8.32471,5.72168,11.25488v.04297l.04382-.00122c3.49731,3.36475,8.22534,5.42993,13.36487,5.42993h.25684c6.28223,0,12.25342-2.68457,16.3833-7.36621l31.26465-35.43359,1.07422,2.44824c7.65186,17.42871,5.03418,36.61719-7.00293,51.3291-11.89209,14.53418-30.58105,21.10547-48.77441,17.14258l-1.70215,7.81641c2.68506,.58496,5.37939,.97266,8.06494,1.16895,4.30713,15.33105,16.99268,26.63477,32.89551,29.08105l5.44678,.83887c-6.11279,12.52148-17.39355,21.6543-30.97217,25.01172-9.20557-9.80273-15.2207-21.95215-17.43994-35.26953l-1.64209-9.85352Z"/>
<rect class="o" height="8" width="7.82031" x="92.93945" y="95.14258"/>
<path class="o" d="M261.17139,151.08887l32.99023,32.99023c.75488,.75488,1.77393,1.17188,2.82812,1.17188,.15723,0,.31543-.00879,.47314-.02832,1.21777-.14453,2.30127-.83984,2.94092-1.88672,4.96924-8.13379,7.59619-17.49609,7.59619-27.0752,0-25.50586-18.22998-47.07324-43.34717-51.28223-1.16211-.19141-2.34814,.13184-3.24561,.89258-.89795,.75977-1.41602,1.87695-1.41553,3.05371l.0083,39.33691c0,1.06055,.42188,2.07715,1.17139,2.82715Zm38.82861,5.17188c0,6.36914-1.37109,12.62305-3.99658,18.34668l-28.00391-28.00391-.00684-32.69531c18.80518,5.2666,32.00732,22.38184,32.00732,42.35254Z"/>
<path class="o" d="M223.81689,197.1084c6.83496,5.3916,14.97021,9,23.52637,10.43555,.22021,.03613,.44141,.05469,.66162,.05469,.93896,0,1.85645-.33105,2.58398-.94727,.89844-.75977,1.41602-1.87695,1.41602-3.05371l-.00488-31.33789c-.00049-1.61719-.9751-3.07617-2.46973-3.69434-1.49463-.61914-3.21582-.27734-4.35889,.86719l-21.70557,21.70703c-.80762,.80762-1.23145,1.92285-1.16455,3.06348,.06738,1.13965,.61865,2.19727,1.51562,2.90527Zm20.18457-15.19141l.00244,16.6875c-4.06299-1.15234-7.95459-2.89258-11.53223-5.15723l11.52979-11.53027Z"/>
<path class="o" d="M266.82861,169.43262c-1.14404-1.14453-2.86377-1.48535-4.35938-.86719-1.49463,.61914-2.46924,2.07715-2.46924,3.69531v31.33691c0,1.17676,.51807,2.29297,1.41602,3.05371,.72754,.61523,1.64502,.94629,2.58398,.94629,.22021,0,.44141-.01855,.66162-.05469,8.55371-1.43555,16.6875-5.04297,23.52148-10.43457,.89697-.70801,1.44873-1.76562,1.51562-2.90625,.06689-1.13965-.35693-2.25488-1.16455-3.0625l-21.70557-21.70703Zm1.17139,29.1709v-16.68555l11.52832,11.5293c-3.57666,2.26465-7.4668,4.00391-11.52832,5.15625Z"/>
<path class="o" d="M64.12402,287.57324c4.09082,3.32031,8.38623,6.49805,12.76709,9.44531l4.46582-6.63672c-4.18359-2.81543-8.28516-5.84961-12.19092-9.01953l-5.04199,6.21094Z"/>
<path class="o" d="M26.99756,230.60547l-7.0293,3.81836c9.37207,17.25098,21.44482,32.72852,35.88232,46.00098l5.41406-5.88867c-13.78711-12.67578-25.31641-27.45605-34.26709-43.93066Z"/>
<path class="o" d="M472.52246,49.61719c-14.00391-12.18164-30.97021-20.58008-49.06543-24.28809l-1.60547,7.83789c16.74756,3.43066,32.4541,11.20605,45.4209,22.48535l5.25-6.03516Z"/>
<path class="o" d="M490.64258,69.8916c-2.74854-3.98633-5.79883-7.8291-9.06689-11.4209l-5.91797,5.38281c3.02783,3.32812,5.85303,6.8877,8.39795,10.5791l6.58691-4.54102Z"/>
</g>
</g>
<g id="d"/>
</svg>