<?xml version="1.0" encoding="utf-8"?>
<!-- Uploaded to: SVG Repo, www.svgrepo.com, Generator: SVG Repo Mixer Tools -->
<svg width="800px" height="800px" viewBox="0 0 1024 1024" class="icon"  version="1.1" xmlns="http://www.w3.org/2000/svg"><path d="M673.690947 327.206105c-41.306606 2.173709-73.917353 36.959189-73.917354 78.265794 2.173709 41.306606 36.959189 73.917353 78.265795 73.917353 41.306606-2.173709 73.917353-36.959189 73.917353-78.265794-2.173709-41.306606-36.959189-76.091062-78.265794-73.917353" fill="#FFBA57" /><path d="M501.941351 783.755547c-8.695858 0-17.39274-2.173709-23.91489-8.695858-13.044299-13.044299-13.044299-32.610748 0-45.655046L678.039388 529.39274l117.398691-58.699346V164.152367c0-17.39274 15.218008-32.610748 32.610748-32.610748s32.610748 15.218008 32.610747 32.610748V509.826291l-143.487289 71.743645-191.316045 191.316045c-6.52215 8.695858-15.219031 10.869567-23.914889 10.869566zM282.362999 327.206105c-41.306606 2.173709-73.917353 36.959189-73.917353 78.265794s36.959189 73.917353 78.265794 73.917353c41.306606-2.173709 73.917353-36.959189 73.917354-78.265794-2.174732-41.306606-36.959189-76.091062-78.265795-73.917353" fill="#FFBA57" /><path d="M110.613403 783.755547c-8.695858 0-17.39274-2.173709-23.914889-8.695858-13.044299-13.044299-13.044299-32.610748 0-45.655046L286.710416 529.39274l117.398692-58.699346V164.152367c0-17.39274 15.218008-32.610748 32.610747-32.610748 17.39274 0 32.610748 15.218008 32.610748 32.610748V509.826291l-143.487289 71.743645-191.316045 191.316045c-6.52215 8.695858-15.218008 10.869567-23.913866 10.869566z" fill="#FFBA57" /><path d="M860.65855 479.389252l-65.221495-8.695858-117.398691 58.699346-32.610748 32.610748c0 2.173709-2.173709 2.173709-6.522149 6.522149 23.91489 4.348441 45.655047 21.740157 45.655046 21.740157s93.483802 54.350905 0 239.1448h173.923305c102.181708-167.401155 2.174732-350.021342 2.174732-350.021342zM469.330603 479.389252l-65.221495-8.695858-117.398692 58.699346-32.610747 32.610748c0 2.173709-2.173709 2.173709-6.52215 6.522149 23.91489 4.348441 45.655047 21.740157 45.655047 21.740157s93.483802 54.350905 0 239.1448h173.923305c102.180684-167.401155 2.174732-350.021342 2.174732-350.021342z" fill="#FF754C" /><path d="M947.621226 718.534052c-65.221495 0-86.961652-43.481338-86.961652-43.481338s-21.740157 43.481338-86.961652 43.481338-86.961652-43.481338-86.961652-43.481338-21.740157 43.481338-86.961653 43.481338-86.961652-43.481338-86.961652-43.481338-21.740157 43.481338-86.961652 43.481338-86.961652-43.481338-86.961653-43.481338-21.740157 43.481338-86.961652 43.481338-86.961652-43.481338-86.961652-43.481338-21.740157 43.481338-86.961653 43.481338v173.923305h869.618571V718.534052z" fill="#7E8CCF" /><path d="M947.621226 762.01539c-65.221495 0-86.961652-43.481338-86.961652-43.481338s-21.740157 43.481338-86.961652 43.481338-86.961652-43.481338-86.961652-43.481338-21.740157 43.481338-86.961653 43.481338-86.961652-43.481338-86.961652-43.481338-21.740157 43.481338-86.961652 43.481338-86.961652-43.481338-86.961653-43.481338-21.740157 43.481338-86.961652 43.481338-86.961652-43.481338-86.961652-43.481338-21.740157 43.481338-86.961653 43.481338v130.442991h869.618571v-130.442991z" fill="#C5CAE9" /></svg>